<svg width="58" height="29" viewBox="0 0 58 29" fill="none" xmlns="http://www.w3.org/2000/svg">
<path d="M54.7062 10.0376L49.0748 4.24692C47.2126 2.1908 44.3676 0 41.9498 0H3.99862C1.79603 0 0.00411933 2.26381 0.00411933 5.04647V18.5183L0.000374485 18.7224C0.000124828 18.7323 0 18.7423 0 18.7522C0 21.8357 1.73349 24.417 4.03382 25.0237C4.44101 27.297 6.0518 29 7.97253 29C9.18386 29 10.2715 28.3216 11.0123 27.2509C11.7533 28.3217 12.8412 29 14.0528 29C15.9349 29 17.5203 27.3645 17.9659 25.159H37.2003C37.6461 27.3643 39.2318 29 41.1142 29C42.3255 29 43.4131 28.3216 44.1539 27.2509C44.8948 28.3217 45.9827 29 47.1943 29C49.0765 29 50.6618 27.3645 51.1074 25.159H53.0256C53.0562 25.159 53.0866 25.1573 53.1165 25.1538C55.7858 25.0223 57.9296 22.2603 57.9656 18.867C58.0404 18.0738 58.2938 13.5165 54.7062 10.0376ZM49.1532 7.5809L52.7342 11.2631H44.2416C44.1758 11.2459 44.1077 11.2367 44.0378 11.2367C43.4759 11.2367 43.0189 10.6594 43.0189 9.94958V7.58074H49.1532V7.5809ZM7.97253 26.4768C7.20945 26.4768 6.54387 25.9444 6.19348 25.159H9.75083C9.40044 25.9444 8.73523 26.4768 7.97253 26.4768ZM14.0527 26.4768C13.2896 26.4768 12.624 25.9444 12.2736 25.159H15.831C15.4807 25.9444 14.8154 26.4768 14.0527 26.4768ZM41.1142 26.4768C40.3511 26.4768 39.6855 25.9444 39.3351 25.159H42.8925C42.5421 25.9444 41.8769 26.4768 41.1142 26.4768ZM47.1943 26.4768C46.4312 26.4768 45.7656 25.9444 45.4152 25.159H48.9726C48.6222 25.9444 47.957 26.4768 47.1943 26.4768ZM55.9813 18.5797C55.973 18.6459 55.9686 18.7128 55.9686 18.78C55.9686 20.9059 54.5995 22.6355 52.9168 22.6355C52.9103 22.6355 52.9038 22.6355 52.8976 22.6356H50.2375C50.2362 22.6356 50.2351 22.6355 50.2339 22.6355C50.2326 22.6355 50.2315 22.6356 50.2302 22.6356H44.1573C44.1561 22.6356 44.155 22.6355 44.1537 22.6355C44.1525 22.6355 44.1514 22.6356 44.1501 22.6356H38.0772C38.076 22.6356 38.0748 22.6355 38.0736 22.6355C38.0723 22.6355 38.0712 22.6356 38.07 22.6356H17.096C17.0947 22.6356 17.0936 22.6355 17.0924 22.6355C17.0911 22.6355 17.09 22.6356 17.0887 22.6356H11.0157C11.0145 22.6356 11.0133 22.6355 11.0121 22.6355C11.0108 22.6355 11.0097 22.6356 11.0085 22.6356H5.07127C3.37985 22.6356 2.00312 20.9009 1.99725 18.7658L2.00112 18.5626C2.00125 18.5527 2.00137 18.5428 2.00137 18.533V5.04631C2.00137 3.65491 2.89739 2.52308 3.99862 2.52308H41.9498C43.3417 2.52308 45.164 3.67604 46.6748 5.05751H42.0204C41.4689 5.05751 41.0218 5.6224 41.0218 6.31912V9.94958C41.0218 11.9455 42.2427 13.5879 43.7907 13.7474C43.8697 13.7728 43.9526 13.7863 44.0379 13.7863H54.8607C56.237 16.143 55.9946 18.4653 55.9813 18.5797Z" fill="#FFC107"/>
<path d="M38.0155 5.05765H5.01913C4.46764 5.05765 4.02051 5.62254 4.02051 6.31926V10.0171C4.02051 12.1181 5.37352 13.8275 7.03661 13.8275H35.998C37.661 13.8275 39.014 12.1181 39.014 10.0171V6.31926C39.0141 5.62238 38.5668 5.05765 38.0155 5.05765ZM37.0168 10.0171C37.0168 10.7267 36.5598 11.3042 35.9981 11.3042H7.03673C6.475 11.3042 6.01788 10.7269 6.01788 10.0171V7.58088H37.0168V10.0171Z" fill="#FFC107"/>
</svg>
