<svg width="60" height="60" viewBox="0 0 60 60" fill="none" xmlns="http://www.w3.org/2000/svg">
<path d="M0.2825 25.675C0.141323 26.6784 0.0470534 27.6878 0 28.7H45.575C45.415 28.3875 45.2 28.1075 44.9875 27.8325C37.195 17.765 33.005 18.64 27.0125 18.3825C25.0125 18.2975 23.6625 18.2625 15.7025 18.2625C11.4425 18.2625 6.815 18.275 2.3075 18.2875C1.7225 19.8625 1.16 21.3875 0.89 22.63H24.245V25.67H0.2825V25.675ZM45.9325 31.74H0.0225C0.0725 32.555 0.1475 33.3525 0.2575 34.1425H42.645C44.53 34.1425 45.5925 33.0675 45.9325 31.74ZM2.6375 42.44C2.6375 42.44 9.6625 59.695 29.9625 60C42.1 60 52.53 52.7925 57.2625 42.44H2.64H2.6375ZM29.97 0C18.75 0 8.9825 6.165 3.8275 15.27L15.7025 15.2575V15.2525C24.9775 15.2525 25.325 15.2925 27.135 15.37L28.255 15.41C32.1625 15.54 36.9675 15.96 40.745 18.82C42.795 20.3725 45.7625 23.795 47.525 26.2325C49.16 28.4875 49.63 31.0825 48.515 33.5675C47.495 35.8525 45.2925 37.2125 42.6325 37.2125H0.9775C0.9775 37.2125 1.225 38.2625 1.6 39.4275H58.47C59.4778 36.3906 59.9943 33.2123 60 30.0125C60 13.4425 46.5525 0 29.97 0Z" fill="#FB7A31"/>
</svg>
