<svg width="58" height="33" viewBox="0 0 58 33" fill="none" xmlns="http://www.w3.org/2000/svg">
<path d="M4.14255 3.18379H17.6096C17.6435 1.49971 19.023 0.140051 20.715 0.140051H24.6776C24.6776 0.52984 24.3301 -0.0365248 24.6776 0.140051C24.33 0.316757 24.6776 -0.249737 24.6776 0.140051L33.3226 0.140058C33.3226 -0.249731 33.67 0.316763 33.3226 0.140058C33.6701 -0.0365186 33.3226 0.529846 33.3226 0.140058L37.2852 0.140051C38.9771 0.140051 40.3566 1.49971 40.3905 3.18379H53.8532C56.1374 3.18379 57.9957 5.04211 57.9957 7.32634V23.6327L57.9997 23.8004C58 23.8085 58 23.8165 58 23.8247C58 26.3559 56.2023 28.4748 53.8167 28.9729C53.3944 30.8389 51.7239 32.2369 49.732 32.2369C48.4758 32.2369 47.3478 31.68 46.5795 30.8011C45.8111 31.6801 44.6829 32.2369 43.4264 32.2369C41.4745 32.2369 39.8304 30.8944 39.3682 29.0839H17.5156C17.0533 30.8942 15.409 32.2369 13.4567 32.2369C12.2005 32.2369 11.0725 31.68 10.3042 30.8011C9.53576 31.6801 8.40756 32.2369 7.15108 32.2369C5.19916 32.2369 3.55508 30.8944 3.09293 29.0839H1.03564C0.463704 29.0839 -1.98453e-06 28.6202 -1.98453e-06 28.0483V7.32634C-1.98453e-06 5.04224 1.85832 3.18379 4.14255 3.18379ZM2.07127 17.677H3.93167C3.99989 17.6629 4.07057 17.6554 4.14307 17.6554C4.72561 17.6554 5.19967 17.1815 5.19967 16.5988V9.40681H2.0714L2.07127 17.677ZM37.2852 2.21133H20.715C20.1653 2.21133 19.7154 2.64228 19.6826 3.18379H38.3176C38.2847 2.64228 37.8348 2.21133 37.2852 2.21133ZM55.9245 9.40681H52.7962V16.5988C52.7962 17.1813 53.2702 17.6554 53.8528 17.6554C53.9253 17.6554 53.9958 17.6628 54.0642 17.677H55.9245V9.40681ZM49.732 30.1657C50.5233 30.1657 51.2136 29.7286 51.577 29.0839H47.8878C48.2512 29.7286 48.941 30.1657 49.732 30.1657ZM43.4265 30.1657C44.2179 30.1657 44.9081 29.7286 45.2715 29.0839H41.5823C41.9457 29.7286 42.6355 30.1657 43.4265 30.1657ZM13.4567 30.1657C14.248 30.1657 14.9383 29.7286 15.3017 29.0839H11.6125C11.9757 29.7286 12.6657 30.1657 13.4567 30.1657ZM7.15121 30.1657C7.94256 30.1657 8.63281 29.7286 8.99619 29.0839H5.30699C5.67024 29.7286 6.36024 30.1657 7.15121 30.1657ZM3.9951 27.0127C3.99639 27.0127 3.99756 27.0125 3.99885 27.0125C4.00015 27.0125 4.00131 27.0127 4.00261 27.0127H10.3007C10.302 27.0127 10.3032 27.0125 10.3045 27.0125C10.3058 27.0125 10.3069 27.0127 10.3082 27.0127H16.6062C16.6075 27.0127 16.6087 27.0125 16.6099 27.0125C16.6112 27.0125 16.6124 27.0127 16.6137 27.0127H40.2705C40.2718 27.0127 40.273 27.0125 40.2743 27.0125C40.2756 27.0125 40.2767 27.0127 40.278 27.0127H46.576C46.5773 27.0127 46.5785 27.0125 46.5798 27.0125C46.5811 27.0125 46.5822 27.0127 46.5835 27.0127H52.7408C54.4949 27.0127 55.9226 25.5887 55.9287 23.836L55.9248 23.6692C55.9247 23.6611 55.9246 23.6529 55.9246 23.6449V22.9133H54.901C54.3291 22.9133 53.8653 22.4496 53.8653 21.8777C53.8653 21.3058 54.3291 20.8421 54.901 20.8421H55.9246V19.7484H53.8529C53.7644 19.7484 53.6784 19.7373 53.5965 19.7165C51.9912 19.5856 50.725 18.2373 50.725 16.5989V8.3713C50.725 7.79937 51.1887 7.33566 51.7607 7.33566H55.9245V7.32647C55.9245 6.18429 54.9952 5.2552 53.8532 5.2552H4.14255C3.0005 5.2552 2.07127 6.18429 2.07127 7.32647V7.33566H6.23518C6.80711 7.33566 7.27082 7.79937 7.27082 8.3713V16.5989C7.27082 18.2373 6.00462 19.5856 4.39939 19.7165C4.31731 19.7373 4.23148 19.7484 4.14293 19.7484H2.07127V20.8421H3.095C3.66693 20.8421 4.13064 21.3058 4.13064 21.8777C4.13064 22.4496 3.66693 22.9133 3.095 22.9133H2.07127V27.0128L3.9951 27.0127Z" fill="#5DD384"/>
<path d="M10.3338 7.33554C10.3458 7.33554 10.3578 7.3358 10.3698 7.33619C10.3818 7.3358 10.3938 7.33554 10.4059 7.33554H47.6268C48.1988 7.33554 48.6625 7.79925 48.6625 8.37118V16.5988C48.6625 18.2372 47.3963 19.5855 45.791 19.7162C45.709 19.7372 45.6231 19.7482 45.5346 19.7482H12.426C12.3375 19.7482 12.2515 19.737 12.1696 19.7162C10.5643 19.5853 9.29813 18.2372 9.29813 16.5988V8.37118C9.29813 7.79925 9.76171 7.33554 10.3338 7.33554ZM11.3694 16.5989C11.3694 17.1815 11.8435 17.6555 12.426 17.6555C12.4985 17.6555 12.5692 17.6629 12.6374 17.6772H45.3232C45.3914 17.6631 45.4621 17.6555 45.5346 17.6555C46.1171 17.6555 46.5912 17.1816 46.5912 16.5989V9.40695H11.3693V16.5989H11.3694Z" fill="#5DD384"/>
</svg> 