<svg width="1355" height="73" viewBox="0 0 1355 73" fill="none" xmlns="http://www.w3.org/2000/svg">
<path d="M417.381 7.20964H447.877C447.953 3.39608 451.077 0.317144 454.909 0.317144H463.882C463.882 1.19981 463.095 -0.0827097 463.882 0.317144C463.095 0.717292 463.882 -0.565525 463.882 0.317144L483.458 0.317158C483.458 -0.565511 484.245 0.717306 483.458 0.317158C484.246 -0.0826957 483.458 1.19983 483.458 0.317158L492.432 0.317144C496.263 0.317144 499.387 3.39608 499.464 7.20964H529.95C535.122 7.20964 539.33 11.4178 539.33 16.5904V53.5159L539.34 53.8955C539.34 53.914 539.34 53.9322 539.34 53.9507C539.34 59.6826 535.269 64.4808 529.867 65.6086C528.911 69.8343 525.128 73 520.617 73C517.773 73 515.218 71.7389 513.479 69.7487C511.738 71.7392 509.184 73 506.338 73C501.918 73 498.195 69.9598 497.149 65.8601H447.664C446.617 69.9595 442.893 73 438.472 73C435.628 73 433.074 71.7389 431.334 69.7487C429.594 71.7392 427.039 73 424.194 73C419.773 73 416.05 69.9598 415.004 65.8601H410.345C409.05 65.8601 408 64.81 408 63.5149V16.5904C408 11.4181 412.208 7.20964 417.381 7.20964ZM412.69 40.0293H416.903C417.058 39.9974 417.218 39.9804 417.382 39.9804C418.701 39.9804 419.775 38.9072 419.775 37.5877V21.3016H412.691L412.69 40.0293ZM492.432 5.00752H454.909C453.664 5.00752 452.645 5.9834 452.571 7.20964H494.77C494.695 5.9834 493.676 5.00752 492.432 5.00752ZM534.64 21.3016H527.556V37.5877C527.556 38.9069 528.63 39.9804 529.949 39.9804C530.113 39.9804 530.273 39.9971 530.428 40.0293H534.64V21.3016ZM520.617 68.3096C522.409 68.3096 523.972 67.32 524.795 65.8601H516.441C517.264 67.32 518.826 68.3096 520.617 68.3096ZM506.339 68.3096C508.131 68.3096 509.694 67.32 510.517 65.8601H502.162C502.985 67.32 504.548 68.3096 506.339 68.3096ZM438.472 68.3096C440.264 68.3096 441.828 67.32 442.65 65.8601H434.296C435.119 67.32 436.681 68.3096 438.472 68.3096ZM424.194 68.3096C425.986 68.3096 427.549 67.32 428.372 65.8601H420.018C420.84 67.32 422.403 68.3096 424.194 68.3096ZM417.047 61.1697C417.05 61.1697 417.052 61.1694 417.055 61.1694C417.058 61.1694 417.061 61.1697 417.064 61.1697H431.326C431.329 61.1697 431.331 61.1694 431.334 61.1694C431.337 61.1694 431.34 61.1697 431.343 61.1697H445.604C445.607 61.1697 445.61 61.1694 445.613 61.1694C445.616 61.1694 445.619 61.1697 445.621 61.1697H499.192C499.195 61.1697 499.198 61.1694 499.2 61.1694C499.203 61.1694 499.206 61.1697 499.209 61.1697H513.471C513.474 61.1697 513.476 61.1694 513.479 61.1694C513.482 61.1694 513.485 61.1697 513.488 61.1697H527.431C531.403 61.1697 534.636 57.9451 534.65 53.9762L534.641 53.5986C534.641 53.5801 534.64 53.5616 534.64 53.5435V51.8869H532.322C531.027 51.8869 529.977 50.8368 529.977 49.5417C529.977 48.2466 531.027 47.1965 532.322 47.1965H534.64V44.72H529.949C529.749 44.72 529.554 44.6948 529.368 44.6476C525.733 44.3512 522.866 41.2981 522.866 37.588V18.9567C522.866 17.6616 523.916 16.6115 525.211 16.6115H534.64V16.5907C534.64 14.0042 532.536 11.9003 529.95 11.9003H417.381C414.795 11.9003 412.69 14.0042 412.69 16.5907V16.6115H422.12C423.415 16.6115 424.465 17.6616 424.465 18.9567V37.588C424.465 41.2981 421.597 44.3512 417.962 44.6476C417.777 44.6948 417.582 44.72 417.382 44.72H412.69V47.1965H415.009C416.304 47.1965 417.354 48.2466 417.354 49.5417C417.354 50.8368 416.304 51.8869 415.009 51.8869H412.69V61.17L417.047 61.1697Z" fill="#5DD384"/>
<path d="M431.401 16.6113C431.428 16.6113 431.455 16.6119 431.482 16.6128C431.509 16.6119 431.537 16.6113 431.564 16.6113H515.85C517.145 16.6113 518.195 17.6614 518.195 18.9565V37.5878C518.195 41.2979 515.328 44.3511 511.693 44.6471C511.507 44.6946 511.313 44.7195 511.112 44.7195H436.139C435.938 44.7195 435.743 44.6943 435.558 44.6471C431.923 44.3508 429.055 41.2979 429.055 37.5878V18.9565C429.055 17.6614 430.105 16.6113 431.401 16.6113ZM433.746 37.5881C433.746 38.9073 434.819 39.9808 436.139 39.9808C436.303 39.9808 436.463 39.9975 436.617 40.0298H510.634C510.788 39.9978 510.948 39.9808 511.112 39.9808C512.431 39.9808 513.505 38.9076 513.505 37.5881V21.302H433.746V37.5881H433.746Z" fill="#5DD384"/>
<path d="M9.38074 7.20964H39.8766C39.9535 3.39608 43.0772 0.317144 46.9087 0.317144H55.8819C55.8819 1.19981 55.0951 -0.0827097 55.8819 0.317144C55.0948 0.717292 55.8819 -0.565525 55.8819 0.317144L75.4584 0.317158C75.4584 -0.565511 76.2452 0.717306 75.4584 0.317158C76.2455 -0.0826957 75.4584 1.19983 75.4584 0.317158L84.4317 0.317144C88.2631 0.317144 91.3869 3.39608 91.4637 7.20964H121.95C127.122 7.20964 131.33 11.4178 131.33 16.5904V53.5159L131.339 53.8955C131.34 53.914 131.34 53.9322 131.34 53.9507C131.34 59.6826 127.269 64.4808 121.867 65.6086C120.911 69.8343 117.128 73 112.617 73C109.773 73 107.218 71.7389 105.479 69.7487C103.738 71.7392 101.184 73 98.3383 73C93.9182 73 90.1952 69.9598 89.1487 65.8601H39.6638C38.617 69.9595 34.8934 73 30.4724 73C27.6277 73 25.0735 71.7389 23.3337 69.7487C21.5936 71.7392 19.0388 73 16.1935 73C11.7734 73 8.05043 69.9598 7.00389 65.8601H2.34518C1.05005 65.8601 -3.22721e-06 64.81 -3.22721e-06 63.5149V16.5904C-3.22721e-06 11.4181 4.20814 7.20964 9.38074 7.20964ZM4.69036 40.0293H8.9032C9.05769 39.9974 9.21774 39.9804 9.38191 39.9804C10.7011 39.9804 11.7746 38.9072 11.7746 37.5877V21.3016H4.69065L4.69036 40.0293ZM84.4317 5.00752H46.9087C45.664 5.00752 44.6453 5.9834 44.5708 7.20964H86.7695C86.6951 5.9834 85.6764 5.00752 84.4317 5.00752ZM126.64 21.3016H119.556V37.5877C119.556 38.9069 120.63 39.9804 121.949 39.9804C122.113 39.9804 122.273 39.9971 122.427 40.0293H126.64V21.3016ZM112.617 68.3096C114.409 68.3096 115.972 67.32 116.795 65.8601H108.441C109.264 67.32 110.826 68.3096 112.617 68.3096ZM98.3386 68.3096C100.131 68.3096 101.694 67.32 102.517 65.8601H94.1624C94.9853 67.32 96.5475 68.3096 98.3386 68.3096ZM30.4724 68.3096C32.2645 68.3096 33.8275 67.32 34.6504 65.8601H26.2963C27.1188 67.32 28.6813 68.3096 30.4724 68.3096ZM16.1938 68.3096C17.9858 68.3096 19.5489 67.32 20.3717 65.8601H12.0176C12.8402 67.32 14.4027 68.3096 16.1938 68.3096ZM9.04684 61.1697C9.04977 61.1697 9.05241 61.1694 9.05534 61.1694C9.05827 61.1694 9.06091 61.1697 9.06384 61.1697H23.3258C23.3287 61.1697 23.3314 61.1694 23.3343 61.1694C23.3372 61.1694 23.3399 61.1697 23.3428 61.1697H37.6045C37.6074 61.1697 37.61 61.1694 37.613 61.1694C37.6159 61.1694 37.6185 61.1697 37.6215 61.1697H91.1919C91.1949 61.1697 91.1975 61.1694 91.2004 61.1694C91.2034 61.1694 91.206 61.1697 91.2089 61.1697H105.471C105.474 61.1697 105.476 61.1694 105.479 61.1694C105.482 61.1694 105.485 61.1697 105.488 61.1697H119.431C123.403 61.1697 126.636 57.9451 126.65 53.9762L126.641 53.5986C126.641 53.5801 126.64 53.5616 126.64 53.5435V51.8869H124.322C123.027 51.8869 121.977 50.8368 121.977 49.5417C121.977 48.2466 123.027 47.1965 124.322 47.1965H126.64V44.72H121.949C121.749 44.72 121.554 44.6948 121.368 44.6476C117.733 44.3512 114.866 41.2981 114.866 37.588V18.9567C114.866 17.6616 115.916 16.6115 117.211 16.6115H126.64V16.5907C126.64 14.0042 124.536 11.9003 121.95 11.9003H9.38074C6.79459 11.9003 4.69036 14.0042 4.69036 16.5907V16.6115H14.1195C15.4146 16.6115 16.4647 17.6616 16.4647 18.9567V37.588C16.4647 41.2981 13.5974 44.3512 9.96234 44.6476C9.77648 44.6948 9.58212 44.72 9.38161 44.72H4.69036V47.1965H7.00857C8.3037 47.1965 9.35377 48.2466 9.35377 49.5417C9.35377 50.8368 8.3037 51.8869 7.00857 51.8869H4.69036V61.17L9.04684 61.1697Z" fill="#5DD384"/>
<path d="M23.4006 16.6113C23.4279 16.6113 23.4551 16.6119 23.4821 16.6128C23.5094 16.6119 23.5366 16.6113 23.5639 16.6113H107.85C109.145 16.6113 110.195 17.6614 110.195 18.9565V37.5878C110.195 41.2979 107.328 44.3511 103.693 44.6471C103.507 44.6946 103.313 44.7195 103.112 44.7195H28.1385C27.938 44.7195 27.7433 44.6943 27.5577 44.6471C23.9227 44.3508 21.0554 41.2979 21.0554 37.5878V18.9565C21.0554 17.6614 22.1052 16.6113 23.4006 16.6113ZM25.7458 37.5881C25.7458 38.9073 26.8193 39.9808 28.1385 39.9808C28.3026 39.9808 28.4627 39.9975 28.6172 40.0298H102.634C102.788 39.9978 102.948 39.9808 103.112 39.9808C104.431 39.9808 105.505 38.9076 105.505 37.5881V21.302H25.7455V37.5881H25.7458Z" fill="#5DD384"/>
<path d="M553.25 7.20964H583.746C583.823 3.39608 586.946 0.317144 590.778 0.317144H599.751C599.751 1.19981 598.964 -0.0827097 599.751 0.317144C598.964 0.717292 599.751 -0.565525 599.751 0.317144L619.327 0.317158C619.327 -0.565511 620.114 0.717306 619.327 0.317158C620.115 -0.0826957 619.327 1.19983 619.327 0.317158L628.301 0.317144C632.132 0.317144 635.256 3.39608 635.333 7.20964H665.819C670.991 7.20964 675.199 11.4178 675.199 16.5904V53.5159L675.209 53.8955C675.209 53.914 675.209 53.9322 675.209 53.9507C675.209 59.6826 671.138 64.4808 665.736 65.6086C664.78 69.8343 660.997 73 656.486 73C653.642 73 651.087 71.7389 649.348 69.7487C647.607 71.7392 645.053 73 642.207 73C637.787 73 634.064 69.9598 633.018 65.8601H583.533C582.486 69.9595 578.762 73 574.341 73C571.497 73 568.943 71.7389 567.203 69.7487C565.463 71.7392 562.908 73 560.063 73C555.642 73 551.919 69.9598 550.873 65.8601H546.214C544.919 65.8601 543.869 64.81 543.869 63.5149V16.5904C543.869 11.4181 548.077 7.20964 553.25 7.20964ZM548.559 40.0293H552.772C552.927 39.9974 553.087 39.9804 553.251 39.9804C554.57 39.9804 555.644 38.9072 555.644 37.5877V21.3016H548.56L548.559 40.0293ZM628.301 5.00752H590.778C589.533 5.00752 588.514 5.9834 588.44 7.20964H630.639C630.564 5.9834 629.545 5.00752 628.301 5.00752ZM670.509 21.3016H663.425V37.5877C663.425 38.9069 664.499 39.9804 665.818 39.9804C665.982 39.9804 666.142 39.9971 666.297 40.0293H670.509V21.3016ZM656.486 68.3096C658.278 68.3096 659.841 67.32 660.664 65.8601H652.31C653.133 67.32 654.695 68.3096 656.486 68.3096ZM642.208 68.3096C644 68.3096 645.563 67.32 646.386 65.8601H638.031C638.854 67.32 640.417 68.3096 642.208 68.3096ZM574.341 68.3096C576.134 68.3096 577.697 67.32 578.519 65.8601H570.165C570.988 67.32 572.55 68.3096 574.341 68.3096ZM560.063 68.3096C561.855 68.3096 563.418 67.32 564.241 65.8601H555.887C556.709 67.32 558.272 68.3096 560.063 68.3096ZM552.916 61.1697C552.919 61.1697 552.921 61.1694 552.924 61.1694C552.927 61.1694 552.93 61.1697 552.933 61.1697H567.195C567.198 61.1697 567.2 61.1694 567.203 61.1694C567.206 61.1694 567.209 61.1697 567.212 61.1697H581.474C581.476 61.1697 581.479 61.1694 581.482 61.1694C581.485 61.1694 581.488 61.1697 581.491 61.1697H635.061C635.064 61.1697 635.067 61.1694 635.069 61.1694C635.072 61.1694 635.075 61.1697 635.078 61.1697H649.34C649.343 61.1697 649.345 61.1694 649.348 61.1694C649.351 61.1694 649.354 61.1697 649.357 61.1697H663.3C667.272 61.1697 670.505 57.9451 670.519 53.9762L670.51 53.5986C670.51 53.5801 670.509 53.5616 670.509 53.5435V51.8869H668.191C666.896 51.8869 665.846 50.8368 665.846 49.5417C665.846 48.2466 666.896 47.1965 668.191 47.1965H670.509V44.72H665.818C665.618 44.72 665.423 44.6948 665.237 44.6476C661.602 44.3512 658.735 41.2981 658.735 37.588V18.9567C658.735 17.6616 659.785 16.6115 661.08 16.6115H670.509V16.5907C670.509 14.0042 668.405 11.9003 665.819 11.9003H553.25C550.664 11.9003 548.559 14.0042 548.559 16.5907V16.6115H557.989C559.284 16.6115 560.334 17.6616 560.334 18.9567V37.588C560.334 41.2981 557.466 44.3512 553.831 44.6476C553.646 44.6948 553.451 44.72 553.251 44.72H548.559V47.1965H550.878C552.173 47.1965 553.223 48.2466 553.223 49.5417C553.223 50.8368 552.173 51.8869 550.878 51.8869H548.559V61.17L552.916 61.1697Z" fill="#5DD384"/>
<path d="M567.27 16.6113C567.297 16.6113 567.324 16.6119 567.351 16.6128C567.378 16.6119 567.406 16.6113 567.433 16.6113H651.719C653.014 16.6113 654.064 17.6614 654.064 18.9565V37.5878C654.064 41.2979 651.197 44.3511 647.562 44.6471C647.376 44.6946 647.182 44.7195 646.981 44.7195H572.008C571.807 44.7195 571.612 44.6943 571.427 44.6471C567.792 44.3508 564.924 41.2979 564.924 37.5878V18.9565C564.924 17.6614 565.974 16.6113 567.27 16.6113ZM569.615 37.5881C569.615 38.9073 570.688 39.9808 572.008 39.9808C572.172 39.9808 572.332 39.9975 572.486 40.0298H646.503C646.657 39.9978 646.817 39.9808 646.981 39.9808C648.301 39.9808 649.374 38.9076 649.374 37.5881V21.302H569.615V37.5881H569.615Z" fill="#5DD384"/>
<path d="M145.25 7.20964H175.746C175.823 3.39608 178.946 0.317144 182.778 0.317144H191.751C191.751 1.19981 190.964 -0.0827097 191.751 0.317144C190.964 0.717292 191.751 -0.565525 191.751 0.317144L211.327 0.317158C211.327 -0.565511 212.114 0.717306 211.327 0.317158C212.115 -0.0826957 211.327 1.19983 211.327 0.317158L220.301 0.317144C224.132 0.317144 227.256 3.39608 227.333 7.20964H257.819C262.991 7.20964 267.199 11.4178 267.199 16.5904V53.5159L267.209 53.8955C267.209 53.914 267.209 53.9322 267.209 53.9507C267.209 59.6826 263.138 64.4808 257.736 65.6086C256.78 69.8343 252.997 73 248.486 73C245.642 73 243.087 71.7389 241.348 69.7487C239.607 71.7392 237.053 73 234.207 73C229.787 73 226.064 69.9598 225.018 65.8601H175.533C174.486 69.9595 170.762 73 166.341 73C163.497 73 160.943 71.7389 159.203 69.7487C157.463 71.7392 154.908 73 152.063 73C147.642 73 143.919 69.9598 142.873 65.8601H138.214C136.919 65.8601 135.869 64.81 135.869 63.5149V16.5904C135.869 11.4181 140.077 7.20964 145.25 7.20964ZM140.559 40.0293H144.772C144.927 39.9974 145.087 39.9804 145.251 39.9804C146.57 39.9804 147.644 38.9072 147.644 37.5877V21.3016H140.56L140.559 40.0293ZM220.301 5.00752H182.778C181.533 5.00752 180.514 5.9834 180.44 7.20964H222.639C222.564 5.9834 221.545 5.00752 220.301 5.00752ZM262.509 21.3016H255.425V37.5877C255.425 38.9069 256.499 39.9804 257.818 39.9804C257.982 39.9804 258.142 39.9971 258.297 40.0293H262.509V21.3016ZM248.486 68.3096C250.278 68.3096 251.841 67.32 252.664 65.8601H244.31C245.133 67.32 246.695 68.3096 248.486 68.3096ZM234.208 68.3096C236 68.3096 237.563 67.32 238.386 65.8601H230.031C230.854 67.32 232.417 68.3096 234.208 68.3096ZM166.341 68.3096C168.134 68.3096 169.697 67.32 170.519 65.8601H162.165C162.988 67.32 164.55 68.3096 166.341 68.3096ZM152.063 68.3096C153.855 68.3096 155.418 67.32 156.241 65.8601H147.887C148.709 67.32 150.272 68.3096 152.063 68.3096ZM144.916 61.1697C144.919 61.1697 144.921 61.1694 144.924 61.1694C144.927 61.1694 144.93 61.1697 144.933 61.1697H159.195C159.198 61.1697 159.2 61.1694 159.203 61.1694C159.206 61.1694 159.209 61.1697 159.212 61.1697H173.474C173.476 61.1697 173.479 61.1694 173.482 61.1694C173.485 61.1694 173.488 61.1697 173.491 61.1697H227.061C227.064 61.1697 227.067 61.1694 227.069 61.1694C227.072 61.1694 227.075 61.1697 227.078 61.1697H241.34C241.343 61.1697 241.345 61.1694 241.348 61.1694C241.351 61.1694 241.354 61.1697 241.357 61.1697H255.3C259.272 61.1697 262.505 57.9451 262.519 53.9762L262.51 53.5986C262.51 53.5801 262.509 53.5616 262.509 53.5435V51.8869H260.191C258.896 51.8869 257.846 50.8368 257.846 49.5417C257.846 48.2466 258.896 47.1965 260.191 47.1965H262.509V44.72H257.818C257.618 44.72 257.423 44.6948 257.237 44.6476C253.602 44.3512 250.735 41.2981 250.735 37.588V18.9567C250.735 17.6616 251.785 16.6115 253.08 16.6115H262.509V16.5907C262.509 14.0042 260.405 11.9003 257.819 11.9003H145.25C142.664 11.9003 140.559 14.0042 140.559 16.5907V16.6115H149.989C151.284 16.6115 152.334 17.6616 152.334 18.9567V37.588C152.334 41.2981 149.466 44.3512 145.831 44.6476C145.646 44.6948 145.451 44.72 145.251 44.72H140.559V47.1965H142.878C144.173 47.1965 145.223 48.2466 145.223 49.5417C145.223 50.8368 144.173 51.8869 142.878 51.8869H140.559V61.17L144.916 61.1697Z" fill="#5DD384"/>
<path d="M159.27 16.6113C159.297 16.6113 159.324 16.6119 159.351 16.6128C159.378 16.6119 159.406 16.6113 159.433 16.6113H243.719C245.014 16.6113 246.064 17.6614 246.064 18.9565V37.5878C246.064 41.2979 243.197 44.3511 239.562 44.6471C239.376 44.6946 239.182 44.7195 238.981 44.7195H164.008C163.807 44.7195 163.612 44.6943 163.427 44.6471C159.792 44.3508 156.925 41.2979 156.925 37.5878V18.9565C156.925 17.6614 157.974 16.6113 159.27 16.6113ZM161.615 37.5881C161.615 38.9073 162.688 39.9808 164.008 39.9808C164.172 39.9808 164.332 39.9975 164.486 40.0298H238.503C238.657 39.9978 238.817 39.9808 238.981 39.9808C240.301 39.9808 241.374 38.9076 241.374 37.5881V21.302H161.615V37.5881H161.615Z" fill="#5DD384"/>
<path d="M689.119 7.20964H719.615C719.692 3.39608 722.815 0.317144 726.647 0.317144H735.62C735.62 1.19981 734.833 -0.0827097 735.62 0.317144C734.833 0.717292 735.62 -0.565525 735.62 0.317144L755.196 0.317158C755.196 -0.565511 755.983 0.717306 755.196 0.317158C755.984 -0.0826957 755.196 1.19983 755.196 0.317158L764.17 0.317144C768.001 0.317144 771.125 3.39608 771.202 7.20964H801.688C806.86 7.20964 811.068 11.4178 811.068 16.5904V53.5159L811.078 53.8955C811.078 53.914 811.078 53.9322 811.078 53.9507C811.078 59.6826 807.007 64.4808 801.605 65.6086C800.649 69.8343 796.866 73 792.355 73C789.511 73 786.956 71.7389 785.217 69.7487C783.476 71.7392 780.922 73 778.076 73C773.656 73 769.933 69.9598 768.887 65.8601H719.402C718.355 69.9595 714.631 73 710.211 73C707.366 73 704.812 71.7389 703.072 69.7487C701.332 71.7392 698.777 73 695.932 73C691.511 73 687.788 69.9598 686.742 65.8601H682.083C680.788 65.8601 679.738 64.81 679.738 63.5149V16.5904C679.738 11.4181 683.946 7.20964 689.119 7.20964ZM684.428 40.0293H688.641C688.796 39.9974 688.956 39.9804 689.12 39.9804C690.439 39.9804 691.513 38.9072 691.513 37.5877V21.3016H684.429L684.428 40.0293ZM764.17 5.00752H726.647C725.402 5.00752 724.383 5.9834 724.309 7.20964H766.508C766.433 5.9834 765.414 5.00752 764.17 5.00752ZM806.378 21.3016H799.294V37.5877C799.294 38.9069 800.368 39.9804 801.687 39.9804C801.851 39.9804 802.011 39.9971 802.166 40.0293H806.378V21.3016ZM792.355 68.3096C794.147 68.3096 795.71 67.32 796.533 65.8601H788.179C789.002 67.32 790.564 68.3096 792.355 68.3096ZM778.077 68.3096C779.869 68.3096 781.432 67.32 782.255 65.8601H773.9C774.723 67.32 776.286 68.3096 778.077 68.3096ZM710.211 68.3096C712.003 68.3096 713.566 67.32 714.388 65.8601H706.034C706.857 67.32 708.419 68.3096 710.211 68.3096ZM695.932 68.3096C697.724 68.3096 699.287 67.32 700.11 65.8601H691.756C692.578 67.32 694.141 68.3096 695.932 68.3096ZM688.785 61.1697C688.788 61.1697 688.79 61.1694 688.793 61.1694C688.796 61.1694 688.799 61.1697 688.802 61.1697H703.064C703.067 61.1697 703.069 61.1694 703.072 61.1694C703.075 61.1694 703.078 61.1697 703.081 61.1697H717.343C717.345 61.1697 717.348 61.1694 717.351 61.1694C717.354 61.1694 717.357 61.1697 717.36 61.1697H770.93C770.933 61.1697 770.936 61.1694 770.939 61.1694C770.941 61.1694 770.944 61.1697 770.947 61.1697H785.209C785.212 61.1697 785.214 61.1694 785.217 61.1694C785.22 61.1694 785.223 61.1697 785.226 61.1697H799.169C803.141 61.1697 806.374 57.9451 806.388 53.9762L806.379 53.5986C806.379 53.5801 806.378 53.5616 806.378 53.5435V51.8869H804.06C802.765 51.8869 801.715 50.8368 801.715 49.5417C801.715 48.2466 802.765 47.1965 804.06 47.1965H806.378V44.72H801.687C801.487 44.72 801.292 44.6948 801.106 44.6476C797.471 44.3512 794.604 41.2981 794.604 37.588V18.9567C794.604 17.6616 795.654 16.6115 796.949 16.6115H806.378V16.5907C806.378 14.0042 804.274 11.9003 801.688 11.9003H689.119C686.533 11.9003 684.428 14.0042 684.428 16.5907V16.6115H693.858C695.153 16.6115 696.203 17.6616 696.203 18.9567V37.588C696.203 41.2981 693.335 44.3512 689.7 44.6476C689.515 44.6948 689.32 44.72 689.12 44.72H684.428V47.1965H686.747C688.042 47.1965 689.092 48.2466 689.092 49.5417C689.092 50.8368 688.042 51.8869 686.747 51.8869H684.428V61.17L688.785 61.1697Z" fill="#5DD384"/>
<path d="M703.139 16.6113C703.166 16.6113 703.193 16.6119 703.22 16.6128C703.248 16.6119 703.275 16.6113 703.302 16.6113H787.588C788.883 16.6113 789.933 17.6614 789.933 18.9565V37.5878C789.933 41.2979 787.066 44.3511 783.431 44.6471C783.245 44.6946 783.051 44.7195 782.85 44.7195H707.877C707.676 44.7195 707.481 44.6943 707.296 44.6471C703.661 44.3508 700.794 41.2979 700.794 37.5878V18.9565C700.794 17.6614 701.843 16.6113 703.139 16.6113ZM705.484 37.5881C705.484 38.9073 706.557 39.9808 707.877 39.9808C708.041 39.9808 708.201 39.9975 708.355 40.0298H782.372C782.526 39.9978 782.686 39.9808 782.85 39.9808C784.17 39.9808 785.243 38.9076 785.243 37.5881V21.302H705.484V37.5881H705.484Z" fill="#5DD384"/>
<path d="M281.119 7.20964H311.615C311.692 3.39608 314.815 0.317144 318.647 0.317144H327.62C327.62 1.19981 326.833 -0.0827097 327.62 0.317144C326.833 0.717292 327.62 -0.565525 327.62 0.317144L347.196 0.317158C347.196 -0.565511 347.983 0.717306 347.196 0.317158C347.984 -0.0826957 347.196 1.19983 347.196 0.317158L356.17 0.317144C360.001 0.317144 363.125 3.39608 363.202 7.20964H393.688C398.86 7.20964 403.068 11.4178 403.068 16.5904V53.5159L403.078 53.8955C403.078 53.914 403.078 53.9322 403.078 53.9507C403.078 59.6826 399.007 64.4808 393.605 65.6086C392.649 69.8343 388.866 73 384.355 73C381.511 73 378.956 71.7389 377.217 69.7487C375.476 71.7392 372.922 73 370.076 73C365.656 73 361.933 69.9598 360.887 65.8601H311.402C310.355 69.9595 306.631 73 302.211 73C299.366 73 296.812 71.7389 295.072 69.7487C293.332 71.7392 290.777 73 287.932 73C283.511 73 279.788 69.9598 278.742 65.8601H274.083C272.788 65.8601 271.738 64.81 271.738 63.5149V16.5904C271.738 11.4181 275.946 7.20964 281.119 7.20964ZM276.428 40.0293H280.641C280.796 39.9974 280.956 39.9804 281.12 39.9804C282.439 39.9804 283.513 38.9072 283.513 37.5877V21.3016H276.429L276.428 40.0293ZM356.17 5.00752H318.647C317.402 5.00752 316.383 5.9834 316.309 7.20964H358.508C358.433 5.9834 357.414 5.00752 356.17 5.00752ZM398.378 21.3016H391.294V37.5877C391.294 38.9069 392.368 39.9804 393.687 39.9804C393.851 39.9804 394.011 39.9971 394.166 40.0293H398.378V21.3016ZM384.355 68.3096C386.147 68.3096 387.71 67.32 388.533 65.8601H380.179C381.002 67.32 382.564 68.3096 384.355 68.3096ZM370.077 68.3096C371.869 68.3096 373.432 67.32 374.255 65.8601H365.9C366.723 67.32 368.286 68.3096 370.077 68.3096ZM302.211 68.3096C304.003 68.3096 305.566 67.32 306.388 65.8601H298.034C298.857 67.32 300.419 68.3096 302.211 68.3096ZM287.932 68.3096C289.724 68.3096 291.287 67.32 292.11 65.8601H283.756C284.578 67.32 286.141 68.3096 287.932 68.3096ZM280.785 61.1697C280.788 61.1697 280.79 61.1694 280.793 61.1694C280.796 61.1694 280.799 61.1697 280.802 61.1697H295.064C295.067 61.1697 295.069 61.1694 295.072 61.1694C295.075 61.1694 295.078 61.1697 295.081 61.1697H309.343C309.345 61.1697 309.348 61.1694 309.351 61.1694C309.354 61.1694 309.357 61.1697 309.36 61.1697H362.93C362.933 61.1697 362.936 61.1694 362.939 61.1694C362.941 61.1694 362.944 61.1697 362.947 61.1697H377.209C377.212 61.1697 377.214 61.1694 377.217 61.1694C377.22 61.1694 377.223 61.1697 377.226 61.1697H391.169C395.141 61.1697 398.374 57.9451 398.388 53.9762L398.379 53.5986C398.379 53.5801 398.378 53.5616 398.378 53.5435V51.8869H396.06C394.765 51.8869 393.715 50.8368 393.715 49.5417C393.715 48.2466 394.765 47.1965 396.06 47.1965H398.378V44.72H393.687C393.487 44.72 393.292 44.6948 393.106 44.6476C389.471 44.3512 386.604 41.2981 386.604 37.588V18.9567C386.604 17.6616 387.654 16.6115 388.949 16.6115H398.378V16.5907C398.378 14.0042 396.274 11.9003 393.688 11.9003H281.119C278.533 11.9003 276.428 14.0042 276.428 16.5907V16.6115H285.858C287.153 16.6115 288.203 17.6616 288.203 18.9567V37.588C288.203 41.2981 285.335 44.3512 281.7 44.6476C281.515 44.6948 281.32 44.72 281.12 44.72H276.428V47.1965H278.747C280.042 47.1965 281.092 48.2466 281.092 49.5417C281.092 50.8368 280.042 51.8869 278.747 51.8869H276.428V61.17L280.785 61.1697Z" fill="#5DD384"/>
<path d="M295.139 16.6113C295.166 16.6113 295.193 16.6119 295.22 16.6128C295.248 16.6119 295.275 16.6113 295.302 16.6113H379.588C380.883 16.6113 381.933 17.6614 381.933 18.9565V37.5878C381.933 41.2979 379.066 44.3511 375.431 44.6471C375.245 44.6946 375.051 44.7195 374.85 44.7195H299.877C299.676 44.7195 299.481 44.6943 299.296 44.6471C295.661 44.3508 292.794 41.2979 292.794 37.5878V18.9565C292.794 17.6614 293.843 16.6113 295.139 16.6113ZM297.484 37.5881C297.484 38.9073 298.557 39.9808 299.877 39.9808C300.041 39.9808 300.201 39.9975 300.355 40.0298H374.372C374.526 39.9978 374.686 39.9808 374.85 39.9808C376.17 39.9808 377.243 38.9076 377.243 37.5881V21.302H297.484V37.5881H297.484Z" fill="#5DD384"/>
<path d="M824.988 7.20964H855.484C855.561 3.39608 858.684 0.317144 862.516 0.317144H871.489C871.489 1.19981 870.702 -0.0827097 871.489 0.317144C870.702 0.717292 871.489 -0.565525 871.489 0.317144L891.065 0.317158C891.065 -0.565511 891.852 0.717306 891.065 0.317158C891.853 -0.0826957 891.065 1.19983 891.065 0.317158L900.039 0.317144C903.87 0.317144 906.994 3.39608 907.071 7.20964H937.557C942.729 7.20964 946.937 11.4178 946.937 16.5904V53.5159L946.947 53.8955C946.947 53.914 946.947 53.9322 946.947 53.9507C946.947 59.6826 942.876 64.4808 937.474 65.6086C936.518 69.8343 932.735 73 928.224 73C925.38 73 922.825 71.7389 921.086 69.7487C919.345 71.7392 916.791 73 913.945 73C909.525 73 905.802 69.9598 904.756 65.8601H855.271C854.224 69.9595 850.501 73 846.08 73C843.235 73 840.681 71.7389 838.941 69.7487C837.201 71.7392 834.646 73 831.801 73C827.38 73 823.658 69.9598 822.611 65.8601H817.952C816.657 65.8601 815.607 64.81 815.607 63.5149V16.5904C815.607 11.4181 819.815 7.20964 824.988 7.20964ZM820.297 40.0293H824.51C824.665 39.9974 824.825 39.9804 824.989 39.9804C826.308 39.9804 827.382 38.9072 827.382 37.5877V21.3016H820.298L820.297 40.0293ZM900.039 5.00752H862.516C861.271 5.00752 860.252 5.9834 860.178 7.20964H902.377C902.302 5.9834 901.283 5.00752 900.039 5.00752ZM942.247 21.3016H935.163V37.5877C935.163 38.9069 936.237 39.9804 937.556 39.9804C937.72 39.9804 937.88 39.9971 938.035 40.0293H942.247V21.3016ZM928.224 68.3096C930.016 68.3096 931.579 67.32 932.402 65.8601H924.048C924.871 67.32 926.433 68.3096 928.224 68.3096ZM913.946 68.3096C915.738 68.3096 917.301 67.32 918.124 65.8601H909.77C910.592 67.32 912.155 68.3096 913.946 68.3096ZM846.08 68.3096C847.872 68.3096 849.435 67.32 850.257 65.8601H841.903C842.726 67.32 844.288 68.3096 846.08 68.3096ZM831.801 68.3096C833.593 68.3096 835.156 67.32 835.979 65.8601H827.625C828.447 67.32 830.01 68.3096 831.801 68.3096ZM824.654 61.1697C824.657 61.1697 824.659 61.1694 824.662 61.1694C824.665 61.1694 824.668 61.1697 824.671 61.1697H838.933C838.936 61.1697 838.938 61.1694 838.941 61.1694C838.944 61.1694 838.947 61.1697 838.95 61.1697H853.212C853.214 61.1697 853.217 61.1694 853.22 61.1694C853.223 61.1694 853.226 61.1697 853.229 61.1697H906.799C906.802 61.1697 906.805 61.1694 906.808 61.1694C906.81 61.1694 906.813 61.1697 906.816 61.1697H921.078C921.081 61.1697 921.083 61.1694 921.086 61.1694C921.089 61.1694 921.092 61.1697 921.095 61.1697H935.038C939.01 61.1697 942.243 57.9451 942.257 53.9762L942.248 53.5986C942.248 53.5801 942.247 53.5616 942.247 53.5435V51.8869H939.929C938.634 51.8869 937.584 50.8368 937.584 49.5417C937.584 48.2466 938.634 47.1965 939.929 47.1965H942.247V44.72H937.556C937.356 44.72 937.161 44.6948 936.975 44.6476C933.34 44.3512 930.473 41.2981 930.473 37.588V18.9567C930.473 17.6616 931.523 16.6115 932.818 16.6115H942.247V16.5907C942.247 14.0042 940.143 11.9003 937.557 11.9003H824.988C822.402 11.9003 820.297 14.0042 820.297 16.5907V16.6115H829.727C831.022 16.6115 832.072 17.6616 832.072 18.9567V37.588C832.072 41.2981 829.204 44.3512 825.569 44.6476C825.384 44.6948 825.189 44.72 824.989 44.72H820.297V47.1965H822.616C823.911 47.1965 824.961 48.2466 824.961 49.5417C824.961 50.8368 823.911 51.8869 822.616 51.8869H820.297V61.17L824.654 61.1697Z" fill="#5DD384"/>
<path d="M839.008 16.6113C839.035 16.6113 839.062 16.6119 839.089 16.6128C839.117 16.6119 839.144 16.6113 839.171 16.6113H923.457C924.752 16.6113 925.802 17.6614 925.802 18.9565V37.5878C925.802 41.2979 922.935 44.3511 919.3 44.6471C919.114 44.6946 918.92 44.7195 918.719 44.7195H843.746C843.545 44.7195 843.35 44.6943 843.165 44.6471C839.53 44.3508 836.663 41.2979 836.663 37.5878V18.9565C836.663 17.6614 837.712 16.6113 839.008 16.6113ZM841.353 37.5881C841.353 38.9073 842.426 39.9808 843.746 39.9808C843.91 39.9808 844.07 39.9975 844.224 40.0298H918.241C918.395 39.9978 918.555 39.9808 918.719 39.9808C920.039 39.9808 921.112 38.9076 921.112 37.5881V21.302H841.353V37.5881H841.353Z" fill="#5DD384"/>
<path d="M960.857 7.20964H991.353C991.43 3.39608 994.553 0.317144 998.385 0.317144H1007.36C1007.36 1.19981 1006.57 -0.0827097 1007.36 0.317144C1006.57 0.717292 1007.36 -0.565525 1007.36 0.317144L1026.93 0.317158C1026.93 -0.565511 1027.72 0.717306 1026.93 0.317158C1027.72 -0.0826957 1026.93 1.19983 1026.93 0.317158L1035.91 0.317144C1039.74 0.317144 1042.86 3.39608 1042.94 7.20964H1073.43C1078.6 7.20964 1082.81 11.4178 1082.81 16.5904V53.5159L1082.82 53.8955C1082.82 53.914 1082.82 53.9322 1082.82 53.9507C1082.82 59.6826 1078.75 64.4808 1073.34 65.6086C1072.39 69.8343 1068.6 73 1064.09 73C1061.25 73 1058.69 71.7389 1056.95 69.7487C1055.21 71.7392 1052.66 73 1049.81 73C1045.39 73 1041.67 69.9598 1040.62 65.8601H991.14C990.093 69.9595 986.37 73 981.949 73C979.104 73 976.55 71.7389 974.81 69.7487C973.07 71.7392 970.515 73 967.67 73C963.25 73 959.527 69.9598 958.48 65.8601H953.821C952.526 65.8601 951.476 64.81 951.476 63.5149V16.5904C951.476 11.4181 955.684 7.20964 960.857 7.20964ZM956.166 40.0293H960.379C960.534 39.9974 960.694 39.9804 960.858 39.9804C962.177 39.9804 963.251 38.9072 963.251 37.5877V21.3016H956.167L956.166 40.0293ZM1035.91 5.00752H998.385C997.14 5.00752 996.121 5.9834 996.047 7.20964H1038.25C1038.17 5.9834 1037.15 5.00752 1035.91 5.00752ZM1078.12 21.3016H1071.03V37.5877C1071.03 38.9069 1072.11 39.9804 1073.42 39.9804C1073.59 39.9804 1073.75 39.9971 1073.9 40.0293H1078.12V21.3016ZM1064.09 68.3096C1065.89 68.3096 1067.45 67.32 1068.27 65.8601H1059.92C1060.74 67.32 1062.3 68.3096 1064.09 68.3096ZM1049.81 68.3096C1051.61 68.3096 1053.17 67.32 1053.99 65.8601H1045.64C1046.46 67.32 1048.02 68.3096 1049.81 68.3096ZM981.949 68.3096C983.741 68.3096 985.304 67.32 986.127 65.8601H977.772C978.595 67.32 980.157 68.3096 981.949 68.3096ZM967.67 68.3096C969.462 68.3096 971.025 67.32 971.848 65.8601H963.494C964.316 67.32 965.879 68.3096 967.67 68.3096ZM960.523 61.1697C960.526 61.1697 960.529 61.1694 960.531 61.1694C960.534 61.1694 960.537 61.1697 960.54 61.1697H974.802C974.805 61.1697 974.807 61.1694 974.81 61.1694C974.813 61.1694 974.816 61.1697 974.819 61.1697H989.081C989.083 61.1697 989.086 61.1694 989.089 61.1694C989.092 61.1694 989.095 61.1697 989.098 61.1697H1042.67C1042.67 61.1697 1042.67 61.1694 1042.68 61.1694C1042.68 61.1694 1042.68 61.1697 1042.69 61.1697H1056.95C1056.95 61.1697 1056.95 61.1694 1056.96 61.1694C1056.96 61.1694 1056.96 61.1697 1056.96 61.1697H1070.91C1074.88 61.1697 1078.11 57.9451 1078.13 53.9762L1078.12 53.5986C1078.12 53.5801 1078.12 53.5616 1078.12 53.5435V51.8869H1075.8C1074.5 51.8869 1073.45 50.8368 1073.45 49.5417C1073.45 48.2466 1074.5 47.1965 1075.8 47.1965H1078.12V44.72H1073.43C1073.22 44.72 1073.03 44.6948 1072.84 44.6476C1069.21 44.3512 1066.34 41.2981 1066.34 37.588V18.9567C1066.34 17.6616 1067.39 16.6115 1068.69 16.6115H1078.12V16.5907C1078.12 14.0042 1076.01 11.9003 1073.43 11.9003H960.857C958.271 11.9003 956.166 14.0042 956.166 16.5907V16.6115H965.596C966.891 16.6115 967.941 17.6616 967.941 18.9567V37.588C967.941 41.2981 965.073 44.3512 961.438 44.6476C961.253 44.6948 961.058 44.72 960.858 44.72H956.166V47.1965H958.485C959.78 47.1965 960.83 48.2466 960.83 49.5417C960.83 50.8368 959.78 51.8869 958.485 51.8869H956.166V61.17L960.523 61.1697Z" fill="#5DD384"/>
<path d="M974.877 16.6113C974.904 16.6113 974.931 16.6119 974.958 16.6128C974.986 16.6119 975.013 16.6113 975.04 16.6113H1059.33C1060.62 16.6113 1061.67 17.6614 1061.67 18.9565V37.5878C1061.67 41.2979 1058.8 44.3511 1055.17 44.6471C1054.98 44.6946 1054.79 44.7195 1054.59 44.7195H979.615C979.414 44.7195 979.219 44.6943 979.034 44.6471C975.399 44.3508 972.532 41.2979 972.532 37.5878V18.9565C972.532 17.6614 973.581 16.6113 974.877 16.6113ZM977.222 37.5881C977.222 38.9073 978.295 39.9808 979.615 39.9808C979.779 39.9808 979.939 39.9975 980.093 40.0298H1054.11C1054.26 39.9978 1054.42 39.9808 1054.59 39.9808C1055.91 39.9808 1056.98 38.9076 1056.98 37.5881V21.302H977.222V37.5881H977.222Z" fill="#5DD384"/>
<path d="M1096.73 7.20964H1127.22C1127.3 3.39608 1130.42 0.317144 1134.25 0.317144H1143.23C1143.23 1.19981 1142.44 -0.0827097 1143.23 0.317144C1142.44 0.717292 1143.23 -0.565525 1143.23 0.317144L1162.8 0.317158C1162.8 -0.565511 1163.59 0.717306 1162.8 0.317158C1163.59 -0.0826957 1162.8 1.19983 1162.8 0.317158L1171.78 0.317144C1175.61 0.317144 1178.73 3.39608 1178.81 7.20964H1209.29C1214.47 7.20964 1218.68 11.4178 1218.68 16.5904V53.5159L1218.68 53.8955C1218.69 53.914 1218.69 53.9322 1218.69 53.9507C1218.69 59.6826 1214.61 64.4808 1209.21 65.6086C1208.26 69.8343 1204.47 73 1199.96 73C1197.12 73 1194.56 71.7389 1192.82 69.7487C1191.08 71.7392 1188.53 73 1185.68 73C1181.26 73 1177.54 69.9598 1176.49 65.8601H1127.01C1125.96 69.9595 1122.24 73 1117.82 73C1114.97 73 1112.42 71.7389 1110.68 69.7487C1108.94 71.7392 1106.38 73 1103.54 73C1099.12 73 1095.4 69.9598 1094.35 65.8601H1089.69C1088.4 65.8601 1087.35 64.81 1087.35 63.5149V16.5904C1087.35 11.4181 1091.55 7.20964 1096.73 7.20964ZM1092.04 40.0293H1096.25C1096.4 39.9974 1096.56 39.9804 1096.73 39.9804C1098.05 39.9804 1099.12 38.9072 1099.12 37.5877V21.3016H1092.04L1092.04 40.0293ZM1171.78 5.00752H1134.25C1133.01 5.00752 1131.99 5.9834 1131.92 7.20964H1174.11C1174.04 5.9834 1173.02 5.00752 1171.78 5.00752ZM1213.99 21.3016H1206.9V37.5877C1206.9 38.9069 1207.97 39.9804 1209.29 39.9804C1209.46 39.9804 1209.62 39.9971 1209.77 40.0293H1213.99V21.3016ZM1199.96 68.3096C1201.75 68.3096 1203.32 67.32 1204.14 65.8601H1195.79C1196.61 67.32 1198.17 68.3096 1199.96 68.3096ZM1185.68 68.3096C1187.48 68.3096 1189.04 67.32 1189.86 65.8601H1181.51C1182.33 67.32 1183.89 68.3096 1185.68 68.3096ZM1117.82 68.3096C1119.61 68.3096 1121.17 67.32 1122 65.8601H1113.64C1114.46 67.32 1116.03 68.3096 1117.82 68.3096ZM1103.54 68.3096C1105.33 68.3096 1106.89 67.32 1107.72 65.8601H1099.36C1100.19 67.32 1101.75 68.3096 1103.54 68.3096ZM1096.39 61.1697C1096.4 61.1697 1096.4 61.1694 1096.4 61.1694C1096.4 61.1694 1096.41 61.1697 1096.41 61.1697H1110.67C1110.67 61.1697 1110.68 61.1694 1110.68 61.1694C1110.68 61.1694 1110.69 61.1697 1110.69 61.1697H1124.95C1124.95 61.1697 1124.96 61.1694 1124.96 61.1694C1124.96 61.1694 1124.96 61.1697 1124.97 61.1697H1178.54C1178.54 61.1697 1178.54 61.1694 1178.55 61.1694C1178.55 61.1694 1178.55 61.1697 1178.55 61.1697H1192.82C1192.82 61.1697 1192.82 61.1694 1192.82 61.1694C1192.83 61.1694 1192.83 61.1697 1192.83 61.1697H1206.78C1210.75 61.1697 1213.98 57.9451 1213.99 53.9762L1213.99 53.5986C1213.99 53.5801 1213.99 53.5616 1213.99 53.5435V51.8869H1211.67C1210.37 51.8869 1209.32 50.8368 1209.32 49.5417C1209.32 48.2466 1210.37 47.1965 1211.67 47.1965H1213.99V44.72H1209.29C1209.09 44.72 1208.9 44.6948 1208.71 44.6476C1205.08 44.3512 1202.21 41.2981 1202.21 37.588V18.9567C1202.21 17.6616 1203.26 16.6115 1204.56 16.6115H1213.99V16.5907C1213.99 14.0042 1211.88 11.9003 1209.29 11.9003H1096.73C1094.14 11.9003 1092.04 14.0042 1092.04 16.5907V16.6115H1101.46C1102.76 16.6115 1103.81 17.6616 1103.81 18.9567V37.588C1103.81 41.2981 1100.94 44.3512 1097.31 44.6476C1097.12 44.6948 1096.93 44.72 1096.73 44.72H1092.04V47.1965H1094.35C1095.65 47.1965 1096.7 48.2466 1096.7 49.5417C1096.7 50.8368 1095.65 51.8869 1094.35 51.8869H1092.04V61.17L1096.39 61.1697Z" fill="#5DD384"/>
<path d="M1110.75 16.6113C1110.77 16.6113 1110.8 16.6119 1110.83 16.6128C1110.85 16.6119 1110.88 16.6113 1110.91 16.6113H1195.2C1196.49 16.6113 1197.54 17.6614 1197.54 18.9565V37.5878C1197.54 41.2979 1194.67 44.3511 1191.04 44.6471C1190.85 44.6946 1190.66 44.7195 1190.46 44.7195H1115.48C1115.28 44.7195 1115.09 44.6943 1114.9 44.6471C1111.27 44.3508 1108.4 41.2979 1108.4 37.5878V18.9565C1108.4 17.6614 1109.45 16.6113 1110.75 16.6113ZM1113.09 37.5881C1113.09 38.9073 1114.16 39.9808 1115.48 39.9808C1115.65 39.9808 1115.81 39.9975 1115.96 40.0298H1189.98C1190.13 39.9978 1190.29 39.9808 1190.46 39.9808C1191.78 39.9808 1192.85 38.9076 1192.85 37.5881V21.302H1113.09V37.5881H1113.09Z" fill="#5DD384"/>
<path d="M1347.1 29.5234L1334.34 16.4105C1330.13 11.7545 1323.68 6.79346 1318.21 6.79346H1232.27C1227.28 6.79346 1223.22 11.9198 1223.22 18.2211V48.7279L1223.21 49.19C1223.21 49.2125 1223.21 49.235 1223.21 49.2575C1223.21 56.2402 1227.14 62.0854 1232.35 63.4592C1233.27 68.607 1236.92 72.4635 1241.27 72.4635C1244.01 72.4635 1246.47 70.9272 1248.15 68.5027C1249.83 70.9275 1252.29 72.4635 1255.04 72.4635C1259.3 72.4635 1262.89 68.7599 1263.9 63.7656H1307.45C1308.46 68.7595 1312.05 72.4635 1316.32 72.4635C1319.06 72.4635 1321.52 70.9272 1323.2 68.5027C1324.88 70.9275 1327.34 72.4635 1330.08 72.4635C1334.35 72.4635 1337.94 68.7599 1338.95 63.7656H1343.29C1343.36 63.7656 1343.43 63.7617 1343.5 63.7538C1349.54 63.456 1354.39 57.2015 1354.48 49.5175C1354.65 47.7212 1355.22 37.4013 1347.1 29.5234ZM1334.52 23.9603L1342.63 32.2985H1323.4C1323.25 32.2596 1323.1 32.2389 1322.94 32.2389C1321.66 32.2389 1320.63 30.9315 1320.63 29.3241V23.9599H1334.52V23.9603ZM1241.27 66.7497C1239.54 66.7497 1238.03 65.544 1237.24 63.7656H1245.29C1244.5 65.544 1242.99 66.7497 1241.27 66.7497ZM1255.04 66.7497C1253.31 66.7497 1251.8 65.544 1251.01 63.7656H1259.06C1258.27 65.544 1256.76 66.7497 1255.04 66.7497ZM1316.32 66.7497C1314.59 66.7497 1313.08 65.544 1312.29 63.7656H1320.34C1319.55 65.544 1318.04 66.7497 1316.32 66.7497ZM1330.08 66.7497C1328.36 66.7497 1326.85 65.544 1326.06 63.7656H1334.11C1333.32 65.544 1331.81 66.7497 1330.08 66.7497ZM1349.98 48.8668C1349.96 49.0168 1349.95 49.1682 1349.95 49.3204C1349.95 54.1346 1346.85 58.0511 1343.04 58.0511C1343.03 58.0511 1343.01 58.0511 1343 58.0514H1336.98C1336.97 58.0514 1336.97 58.0511 1336.97 58.0511C1336.97 58.0511 1336.96 58.0514 1336.96 58.0514H1323.21C1323.2 58.0514 1323.2 58.0511 1323.2 58.0511C1323.2 58.0511 1323.19 58.0514 1323.19 58.0514H1309.44C1309.44 58.0514 1309.43 58.0511 1309.43 58.0511C1309.43 58.0511 1309.43 58.0514 1309.42 58.0514H1261.93C1261.92 58.0514 1261.92 58.0511 1261.92 58.0511C1261.92 58.0511 1261.91 58.0514 1261.91 58.0514H1248.16C1248.16 58.0514 1248.15 58.0511 1248.15 58.0511C1248.15 58.0511 1248.15 58.0514 1248.14 58.0514H1234.7C1230.87 58.0514 1227.75 54.1232 1227.74 49.2882L1227.75 48.8283C1227.75 48.8058 1227.75 48.7833 1227.75 48.7611V18.2207C1227.75 15.0699 1229.78 12.5069 1232.27 12.5069H1318.21C1321.36 12.5069 1325.49 15.1178 1328.91 18.2461H1318.37C1317.12 18.2461 1316.11 19.5253 1316.11 21.103V29.3241C1316.11 33.8438 1318.87 37.5631 1322.38 37.9241C1322.56 37.9816 1322.74 38.0124 1322.94 38.0124H1347.45C1350.56 43.3491 1350.01 48.6079 1349.98 48.8668Z" fill="#5DD384"/>
<path d="M1309.3 18.2463H1234.58C1233.33 18.2463 1232.32 19.5255 1232.32 21.1032V29.4769C1232.32 34.2347 1235.38 38.1054 1239.15 38.1054H1304.73C1308.5 38.1054 1311.56 34.2347 1311.56 29.4769V21.1032C1311.56 19.5252 1310.55 18.2463 1309.3 18.2463ZM1307.04 29.4769C1307.04 31.0839 1306 32.3916 1304.73 32.3916H1239.15C1237.88 32.3916 1236.84 31.0842 1236.84 29.4769V23.9602H1307.04V29.4769Z" fill="#5DD384"/>
</svg>
